<?xml version="1.0" encoding="utf-8"?>
<!-- Generator: Adobe Illustrator 16.0.0, SVG Export Plug-In . SVG Version: 6.00 Build 0)  -->
<!DOCTYPE svg PUBLIC "-//W3C//DTD SVG 1.1//EN" "http://www.w3.org/Graphics/SVG/1.1/DTD/svg11.dtd">
<svg version="1.1" id="Layer_1" xmlns="http://www.w3.org/2000/svg" xmlns:xlink="http://www.w3.org/1999/xlink" x="0px" y="0px"
	 width="2471.505px" height="1457.708px" viewBox="0 0 2471.505 1457.708" enable-background="new 0 0 2471.505 1457.708"
	 xml:space="preserve">
<g>
	<g>
		<path fill="#FD0100" d="M1127.875,963.041c0,12.177-1.136,28.902-3.404,50.156H945.809c-1.655,4.757-2.477,10.22-2.477,16.418
			c0,9.701,4.642,17.647,13.934,23.836c8.255,5.578,17.439,8.363,27.558,8.363c18.16,0,34.777-8.875,49.849-26.629h78.032
			c-13.422,32.408-33.647,58.521-60.687,78.34c-28.077,20.644-59.248,30.964-93.515,30.964c-30.342,0-54.55-9.083-72.608-27.25
			c-18.065-18.164-27.093-42.52-27.093-73.073c0-45.212,17.54-86.394,52.639-123.547c35.087-37.157,75.132-55.734,120.136-55.734
			C1095.777,864.884,1127.875,897.602,1127.875,963.041z M1058.207,970.158c-1.857-22.908-14.451-34.365-37.778-34.365
			c-19.404,0-38.188,11.457-56.354,34.365H1058.207z"/>
		<path fill="#FD0100" d="M1426.99,961.493c0,44.795-13.313,84.948-39.944,120.445c-29.104,38.813-65.328,58.218-108.684,58.218
			c-31.379,0-54.598-11.659-69.668-34.993c-12.178,42.319-24.766,88.354-37.772,138.101H1056.04
			c52.85-114.149,91.448-239.659,115.811-376.522h113.637l-5.571,14.244c18.157-10.731,38.907-16.101,62.233-16.101
			C1398.707,864.884,1426.99,897.085,1426.99,961.493z M1357.941,966.646c0-21.604-10.631-32.403-31.892-32.403
			c-15.07,0-28.438,6.38-40.099,19.136c-11.667,12.756-17.493,26.751-17.493,41.977c0,22.633,11.25,33.949,33.748,33.949
			c15.892,0,29.314-6.586,40.254-19.76C1352.781,996.996,1357.941,982.7,1357.941,966.646z"/>
		<path fill="#FD0100" d="M1729.202,961.493c0,44.795-13.314,84.948-39.944,120.445c-29.105,38.813-65.33,58.218-108.686,58.218
			c-31.38,0-54.597-11.659-69.669-34.993c-12.178,42.319-24.767,88.354-37.771,138.101H1358.25
			c52.848-114.149,91.447-239.659,115.81-376.522h113.637l-5.571,14.244c18.16-10.731,38.909-16.101,62.236-16.101
			C1700.916,864.884,1729.202,897.085,1729.202,961.493z M1660.152,966.646c0-21.604-10.63-32.403-31.891-32.403
			c-15.072,0-28.44,6.38-40.1,19.136c-11.666,12.756-17.493,26.751-17.493,41.977c0,22.633,11.248,33.949,33.747,33.949
			c15.892,0,29.315-6.586,40.254-19.76C1654.99,996.996,1660.152,982.7,1660.152,966.646z"/>
		<path fill="#FD0100" d="M1989.61,963.041c0,12.177-1.137,28.902-3.404,50.156h-178.663c-1.655,4.757-2.477,10.22-2.477,16.418
			c0,9.701,4.644,17.647,13.935,23.836c8.256,5.578,17.438,8.363,27.558,8.363c18.159,0,34.778-8.875,49.849-26.629h78.031
			c-13.422,32.408-33.647,58.521-60.686,78.34c-28.077,20.644-59.248,30.964-93.515,30.964c-30.343,0-54.55-9.083-72.608-27.25
			c-18.064-18.164-27.094-42.52-27.094-73.073c0-45.212,17.54-86.394,52.64-123.547c35.086-37.157,75.133-55.734,120.137-55.734
			C1957.511,864.884,1989.61,897.602,1989.61,963.041z M1919.941,970.158c-1.857-22.908-14.451-34.365-37.778-34.365
			c-19.403,0-38.188,11.457-56.354,34.365H1919.941z"/>
		<path fill="#FD0100" d="M2266.738,936.1c-11.969-5.987-33.014-8.98-63.142-8.98c-23.723,0-43.639,6.815-59.731,20.439
			c-17.743,15.07-42.099,76.996-73.041,185.78l-0.31,0.027l-1.493,4.932h-103.875l82.358-271.248h45.825
			c12.588-5.369,27.351-8.053,44.285-8.053C2172.088,858.998,2215.127,884.699,2266.738,936.1z"/>
	</g>
</g>
<path fill="#FD0100" d="M954.917,725.662c-0.02,0.182-0.047,0.356-0.067,0.538c0.121-0.41,0.249-0.813,0.376-1.225
	C955.14,725.209,954.985,725.412,954.917,725.662z"/>
<g>
	<path fill="#28A202" d="M837.712,155.217C702.291,53.724,706.661,255.07,710.804,255.07c4.15,0,39.544-122.775,94.146-32.738
		c13.096,21.591,14.487,44.597,9.041,67.08h85.704C900.797,251.189,885.862,191.307,837.712,155.217z"/>
	<path fill="#FD0100" d="M929.599,299.815c-2.367-0.952-4.839-1.665-7.377-2.211l-64.518-0.178l-64.523,0.178
		c-2.539,0.547-5.011,1.26-7.378,2.211c-16.544,6.652-28.32,22.56-28.986,41.322c0,1.087,0,2.206,0,3.299c0,7.989,0,16.312,0,24.79
		c0,42.635,0,91.44,0,147.451c0,422.796-216.92,564.375-398.292,608.883c-13.014,4.998-26.483,9.637-40.483,13.844
		c0,0,640.542,103.789,640.542-622.727c0-69.778,0-111.808,0-147.451c0-8.531,0-16.693,0-24.79c0-1.1,0-2.2,0-3.299
		C957.918,322.375,946.142,306.467,929.599,299.815z"/>
	<path fill="#FD0100" d="M1425.669,432.798c-2.706-26.532-9.62-49.983-20.753-70.361c-11.166-20.361-26.157-36.334-44.991-47.873
		c-18.861-11.526-40.191-17.305-64.017-17.305h-286.402c-5.707,0-10.332,4.625-10.332,10.332v127.014
		c0,5.624,4.499,10.178,10.093,10.309c0.084,0,0.154,0.023,0.238,0.023c0.083,0,0.154-0.023,0.237-0.023h131.598
		c16.14,0,28.44,7.122,36.904,21.341c8.459,14.231,10.38,31.346,5.766,51.325l-10.379,39.224
		c-2.307,9.232-6.164,18.655-11.538,28.262c-5.386,9.618-11.723,18.45-19.029,26.529c-7.317,8.067-15.188,14.81-23.649,20.183
		c-8.464,5.386-17.299,8.079-26.531,8.079h-74.974c-0.297-0.024-0.584-0.089-0.885-0.089c-0.305,0-0.589,0.065-0.888,0.089
		c-4.344,0.374-7.893,3.407-9.023,7.489c-0.25,0.882-0.422,1.791-0.422,2.753c0,0.101,0.031,0.198,0.031,0.298
		c-5.768,45.085-14.469,86.097-25.605,123.431c-0.113,0.363-0.226,0.72-0.333,1.081c-0.113,0.855-0.22,1.718-0.332,2.574
		c0.154,5.48,4.57,9.879,10.063,10.01h0.476h182.638c25.372,0,50.756-6.907,76.139-20.753c25.366-13.839,48.621-31.72,69.778-53.638
		c21.153-21.918,39.396-45.75,54.792-71.521c15.368-25.746,26.139-50.934,32.298-75.544l12.686-48.456
		C1426.258,487.589,1428.361,459.329,1425.669,432.798z"/>
</g>
</svg>
