<?xml version="1.0" encoding="utf-8"?>
<!-- Generator: Adobe Illustrator 16.0.0, SVG Export Plug-In . SVG Version: 6.00 Build 0)  -->
<!DOCTYPE svg PUBLIC "-//W3C//DTD SVG 1.1//EN" "http://www.w3.org/Graphics/SVG/1.1/DTD/svg11.dtd">
<svg version="1.1" id="Layer_1" xmlns="http://www.w3.org/2000/svg" xmlns:xlink="http://www.w3.org/1999/xlink" x="0px" y="0px"
	 width="1385.723px" height="1289.742px" viewBox="0 0 1385.723 1289.742" enable-background="new 0 0 1385.723 1289.742"
	 xml:space="preserve">
<path fill="#FD0100" d="M762.956,725.662c-0.02,0.182-0.047,0.356-0.067,0.538c0.121-0.41,0.249-0.813,0.376-1.225
	C763.179,725.209,763.024,725.412,762.956,725.662z"/>
<g>
	<path fill="#28A202" d="M645.75,155.217C510.33,53.724,514.7,255.07,518.843,255.07c4.15,0,39.544-122.775,94.146-32.738
		c13.096,21.591,14.487,44.597,9.041,67.08h85.704C708.835,251.189,693.901,191.307,645.75,155.217z"/>
	<path fill="#FD0100" d="M737.637,299.815c-2.367-0.952-4.839-1.665-7.377-2.211l-64.518-0.178l-64.523,0.178
		c-2.539,0.547-5.011,1.26-7.378,2.211c-16.544,6.652-28.32,22.56-28.986,41.322c0,1.087,0,2.206,0,3.299c0,7.989,0,16.312,0,24.79
		c0,42.635,0,91.44,0,147.451c0,422.796-216.92,564.375-398.292,608.883c-13.014,4.998-26.483,9.637-40.483,13.844
		c0,0,640.542,103.789,640.542-622.727c0-69.778,0-111.808,0-147.451c0-8.531,0-16.693,0-24.79c0-1.1,0-2.2,0-3.299
		C765.957,322.375,754.18,306.467,737.637,299.815z"/>
	<path fill="#FD0100" d="M1233.708,432.798c-2.706-26.532-9.62-49.983-20.753-70.361c-11.166-20.361-26.157-36.334-44.991-47.873
		c-18.861-11.526-40.191-17.305-64.017-17.305H817.545c-5.707,0-10.332,4.625-10.332,10.332v127.014
		c0,5.624,4.499,10.178,10.093,10.309c0.084,0,0.154,0.023,0.238,0.023c0.083,0,0.154-0.023,0.237-0.023h131.598
		c16.14,0,28.44,7.122,36.904,21.341c8.459,14.231,10.38,31.346,5.766,51.325l-10.379,39.224
		c-2.307,9.232-6.164,18.655-11.538,28.262c-5.386,9.618-11.723,18.45-19.029,26.529c-7.317,8.067-15.188,14.81-23.649,20.183
		c-8.464,5.386-17.299,8.079-26.531,8.079H825.95c-0.297-0.024-0.584-0.089-0.885-0.089c-0.305,0-0.589,0.065-0.888,0.089
		c-4.344,0.374-7.893,3.407-9.023,7.489c-0.25,0.882-0.422,1.791-0.422,2.753c0,0.101,0.031,0.198,0.031,0.298
		c-5.768,45.085-14.469,86.097-25.605,123.431c-0.113,0.363-0.226,0.72-0.333,1.081c-0.113,0.855-0.22,1.718-0.332,2.574
		c0.154,5.48,4.57,9.879,10.063,10.01h0.476h182.638c25.372,0,50.756-6.907,76.139-20.753c25.366-13.839,48.621-31.72,69.778-53.638
		c21.153-21.918,39.396-45.75,54.792-71.521c15.368-25.746,26.139-50.934,32.298-75.544l12.686-48.456
		C1234.297,487.589,1236.399,459.329,1233.708,432.798z"/>
</g>
</svg>
